<svg xmlns="http://www.w3.org/2000/svg" width="52" height="11" viewBox="0 0 52 11"><path d="M49.48 3.17v5.54c0 .63-.27 1.2-.7 1.62a2.55 2.55 0 0 1-3.44 0 2.2 2.2 0 0 1 0-3.24l4.14-3.92ZM11.03 4.38c2.09 0 3.05 1.45 3.05 3.18v.5H9.64v.16c0 .9.55 1.52 1.62 1.52.8 0 1.3-.36 1.7-.85l.89.93c-.55.7-1.53 1.16-2.77 1.16-1.97 0-3.15-1.3-3.15-3.31 0-2 1.14-3.29 3.1-3.29Zm7.14 0c2.09 0 3.05 1.45 3.05 3.18v.5h-4.44v.16c0 .9.55 1.52 1.62 1.52.8 0 1.3-.36 1.7-.85l.89.93c-.55.7-1.52 1.16-2.77 1.16-1.97 0-3.15-1.3-3.15-3.31 0-2 1.14-3.29 3.1-3.29ZM4.13 2.41c1.48 0 2.37.85 2.37 2.16 0 1.3-.78 1.76-1.6 1.8v.08c.78.01 1.93.53 1.93 1.97 0 1.35-.98 2.41-2.3 2.41H0V2.41h4.13Zm22.95 0 2.97 8.42h-1.76l-.71-2.14H24.4l-.7 2.14h-1.71l2.99-8.42h2.1Zm7.97 0v1.27h-1.19v5.87h1.2v1.28H31V9.55h1.17V3.68H31V2.41h4.05Zm-31 4.81H1.69v2.26h2.36c.64 0 1.02-.32 1.02-.92v-.4c0-.6-.39-.94-1.02-.94Zm21.97-3.37h-.07l-1.14 3.47h2.36l-1.15-3.47Zm-14.96 1.7c-.85 0-1.42.6-1.42 1.47v.1h2.73V7c0-.87-.47-1.47-1.31-1.47Zm7.14 0c-.85 0-1.42.6-1.42 1.47v.1h2.73V7c0-.87-.47-1.47-1.31-1.47Zm30.44-3.18L44.49 6.3c-.42.4-.96.62-1.51.66H42.57a2.5 2.5 0 0 1-1.52-.66 2.21 2.21 0 0 1 0-3.25 2.5 2.5 0 0 1 1.72-.67h5.87ZM3.78 3.76H1.69v2.16h2.09c.61 0 .97-.34.97-.9v-.37c0-.57-.36-.9-.97-.9Zm47.98-1.57c.32.3.32.8 0 1.12-.33.3-.86.3-1.2 0a.76.76 0 0 1 0-1.12c.34-.31.87-.31 1.2 0ZM49.68.23c.33.3.33.81 0 1.12-.33.3-.86.3-1.19 0a.76.76 0 0 1 0-1.12c.33-.3.86-.3 1.2 0Z"/></svg>