<svg xmlns="http://www.w3.org/2000/svg" viewBox="0 0 12 12"><path d="M8.966 3.793v5.25a2.168 2.168 0 0 1-1.357 2.014 2.173 2.173 0 0 1-2.355-.476 2.177 2.177 0 0 1 0-3.075l3.712-3.713Zm-.75 1.811-2.43 2.43a1.426 1.426 0 0 0 0 2.014 1.43 1.43 0 0 0 1.534.315c.525-.21.896-.724.896-1.324V5.604Zm-.011-2.568L4.492 6.748A2.173 2.173 0 0 1 .78 5.21a2.192 2.192 0 0 1 .637-1.537 2.168 2.168 0 0 1 1.538-.637h5.25Zm-1.811.753H2.955c-.593 0-1.099.364-1.316.878A1.426 1.426 0 0 0 3.964 6.22l2.43-2.43Zm4.605-.933a.751.751 0 0 1-1.062 1.06A.751.751 0 0 1 11 2.857ZM9.142.999a.751.751 0 0 1-1.06 1.062.751.751 0 0 1 1.06-1.062Z"/></svg>
