<svg xmlns="http://www.w3.org/2000/svg" viewBox="0 0 132 132"><path d="M77.837 41.113a8.221 8.221 0 0 1-8.25-8.25 8.222 8.222 0 0 1 8.25-8.25 8.221 8.221 0 0 1 8.25 8.25 8.221 8.221 0 0 1-8.25 8.25Zm-24.667-.004a8.16 8.16 0 0 1-8.168-8.168 8.134 8.134 0 0 1 8.168-8.167 8.134 8.134 0 0 1 8.167 8.167 8.134 8.134 0 0 1-8.167 8.168Zm8.25 8.205h-16.5v74.25h16.5v-74.25Zm24.75 0h-16.5v74.25h16.5v-74.25Zm-53.668 45.09a14.31 14.31 0 0 1-10.147 4.207 14.31 14.31 0 0 1-10.148-4.207 14.42 14.42 0 0 1-3.052-4.538A14.266 14.266 0 0 1 8 84.216c0-3.672 1.402-7.343 4.207-10.148l24.544-24.544v34.691c0 3.828-1.503 7.31-3.95 9.884l-.299.305Zm66.29-81.638c2.682-2.681 6.353-4.331 10.437-4.331s7.755 1.65 10.436 4.331c1.36 1.361 2.434 2.929 3.135 4.62.743 1.774 1.196 3.754 1.196 5.775 0 3.795-1.443 7.549-4.331 10.436L94.502 58.76V23.202c0-4.083 1.65-7.755 4.331-10.436h-.04Z"/></svg>
